<svg width="144" height="56" viewBox="0 0 144 56" fill="none" xmlns="http://www.w3.org/2000/svg">
<path d="M40.4734 32.225C40.2984 32.225 40.0109 32.2125 39.6109 32.1875C39.211 32.1625 38.7985 32.1375 38.3735 32.1125C37.9485 32.0875 37.5361 32.0625 37.1361 32.0375C36.7361 32.0125 36.4486 32 36.2736 32H34.0612C33.8862 32 33.5988 32.0125 33.1988 32.0375C32.7988 32.0625 32.3863 32.0875 31.9613 32.1125C31.5364 32.1375 31.1239 32.1625 30.7239 32.1875C30.3239 32.2125 30.0365 32.225 29.8615 32.225L29.7865 32.075L29.899 30.6501L30.0489 30.5001C30.4489 30.5001 30.8239 30.4876 31.1739 30.4626C31.5239 30.4126 31.8239 30.3001 32.0738 30.1251C32.2988 29.9501 32.4738 29.7251 32.5988 29.4501C32.7238 29.1751 32.8488 28.6877 32.9738 27.9877C32.9988 27.8127 33.0113 27.6127 33.0113 27.3877C33.0363 27.1378 33.0488 26.8378 33.0488 26.4878C33.0738 26.1378 33.0863 25.7128 33.0863 25.2129C33.0863 24.7129 33.0863 24.0879 33.0863 23.338V20.3381H21.9869V22.588C21.9869 23.4879 21.9869 24.2254 21.9869 24.8004C21.9869 25.3504 21.9869 25.8128 21.9869 26.1878C22.0119 26.5628 22.0244 26.8878 22.0244 27.1628C22.0494 27.4127 22.0744 27.6877 22.0994 27.9877C22.1494 28.6877 22.2619 29.1751 22.4369 29.4501C22.6118 29.7251 22.7993 29.9501 22.9993 30.1251C23.2243 30.3001 23.5118 30.4126 23.8618 30.4626C24.2368 30.4876 24.6242 30.5001 25.0242 30.5001L25.1742 30.6501L25.2867 32.075L25.2117 32.225C25.0367 32.225 24.7492 32.2125 24.3493 32.1875C23.9493 32.1625 23.5368 32.1375 23.1118 32.1125C22.6868 32.0875 22.2744 32.0625 21.8744 32.0375C21.4744 32.0125 21.1869 32 21.0119 32H18.7995C18.6246 32 18.3371 32.0125 17.9371 32.0375C17.5371 32.0625 17.1246 32.0875 16.6997 32.1125C16.2747 32.1375 15.8622 32.1625 15.4622 32.1875C15.0622 32.2125 14.7748 32.225 14.5998 32.225L14.5248 32.075L14.6373 30.6501L14.8248 30.5001C15.2247 30.5001 15.5997 30.4876 15.9497 30.4626C16.2997 30.4126 16.5872 30.3001 16.8121 30.1251C17.0121 29.9501 17.1996 29.7251 17.3746 29.4501C17.5746 29.1751 17.6996 28.6877 17.7496 27.9877C17.7496 27.8127 17.7496 27.6127 17.7496 27.3877C17.7746 27.1378 17.7871 26.8378 17.7871 26.4878C17.8121 26.1378 17.8246 25.7128 17.8246 25.2129C17.8246 24.7129 17.8246 24.0879 17.8246 23.338V17.2258C17.8246 16.3508 17.8246 15.6134 17.8246 15.0134C17.8246 14.4134 17.8121 13.901 17.7871 13.476C17.7871 13.051 17.7746 12.6885 17.7496 12.3885C17.7496 12.0886 17.7371 11.7886 17.7121 11.4886C17.6621 10.8386 17.5496 10.3636 17.3746 10.0637C17.1996 9.76368 17.0121 9.52619 16.8121 9.3512C16.5872 9.17621 16.2997 9.07621 15.9497 9.05121C15.5997 9.00122 15.2247 8.97622 14.8248 8.97622L14.6373 8.82622L14.5248 7.4013L14.5998 7.25131C14.7748 7.25131 15.0622 7.26381 15.4622 7.28881C15.8622 7.3138 16.2747 7.3388 16.6997 7.3638C17.1246 7.3888 17.5371 7.4138 17.9371 7.4388C18.3371 7.4638 18.6246 7.4763 18.7995 7.4763H21.0119C21.1869 7.4763 21.4744 7.4638 21.8744 7.4388C22.2744 7.4138 22.6868 7.3888 23.1118 7.3638C23.5368 7.3388 23.9493 7.3138 24.3493 7.28881C24.7492 7.26381 25.0367 7.25131 25.2117 7.25131L25.2867 7.4013L25.1742 8.82622L25.0242 8.97622C24.6742 8.97622 24.2993 9.00122 23.8993 9.05121C23.5243 9.07621 23.2243 9.17621 22.9993 9.3512C22.7993 9.52619 22.5993 9.75118 22.3994 10.0262C22.2244 10.3011 22.1244 10.7886 22.0994 11.4886C22.0744 11.8386 22.0494 12.1635 22.0244 12.4635C22.0244 12.7635 22.0119 13.1135 21.9869 13.5135C21.9869 13.9135 21.9869 14.4009 21.9869 14.9759C21.9869 15.5509 21.9869 16.2883 21.9869 17.1883V17.5633H33.0863V17.2258C33.0863 16.3508 33.0863 15.6134 33.0863 15.0134C33.0863 14.4134 33.0738 13.901 33.0488 13.476C33.0488 13.051 33.0363 12.6885 33.0113 12.3885C33.0113 12.0886 32.9988 11.7886 32.9738 11.4886C32.9238 10.7886 32.8113 10.3011 32.6363 10.0262C32.4613 9.75118 32.2738 9.52619 32.0738 9.3512C31.8489 9.17621 31.5489 9.07621 31.1739 9.05121C30.8239 9.00122 30.4489 8.97622 30.0489 8.97622L29.899 8.82622L29.7865 7.4013L29.8615 7.25131C30.0365 7.25131 30.3239 7.26381 30.7239 7.28881C31.1239 7.3138 31.5364 7.3388 31.9613 7.3638C32.3863 7.3888 32.7988 7.4138 33.1988 7.4388C33.5988 7.4638 33.8862 7.4763 34.0612 7.4763H36.2736C36.4486 7.4763 36.7361 7.4638 37.1361 7.4388C37.5361 7.4138 37.9485 7.3888 38.3735 7.3638C38.7985 7.3388 39.211 7.3138 39.6109 7.28881C40.0109 7.26381 40.2984 7.25131 40.4734 7.25131L40.5484 7.4013L40.4359 8.82622L40.2484 8.97622C39.8484 8.97622 39.461 9.00122 39.086 9.05121C38.736 9.07621 38.461 9.17621 38.261 9.3512C38.061 9.52619 37.8735 9.75118 37.6985 10.0262C37.5486 10.3011 37.4236 10.7886 37.3236 11.4886C37.2986 11.8386 37.2736 12.1635 37.2486 12.4635C37.2486 12.7635 37.2486 13.1135 37.2486 13.5135C37.2486 13.9135 37.2486 14.4009 37.2486 14.9759C37.2486 15.5509 37.2486 16.2883 37.2486 17.1883V22.588C37.2486 23.4879 37.2486 24.2254 37.2486 24.8004C37.2486 25.3504 37.2486 25.8128 37.2486 26.1878C37.2486 26.5628 37.2486 26.8878 37.2486 27.1628C37.2736 27.4127 37.2986 27.6877 37.3236 27.9877C37.3736 28.6877 37.4861 29.1751 37.661 29.4501C37.861 29.7251 38.061 29.9501 38.261 30.1251C38.486 30.3001 38.7735 30.4126 39.1235 30.4626C39.4735 30.4876 39.8484 30.5001 40.2484 30.5001L40.4359 30.6501L40.5484 32.075L40.4734 32.225ZM54.3632 7.4763C54.7132 7.4763 55.2256 7.4763 55.9006 7.4763C56.6006 7.4513 57.313 7.4263 58.038 7.4013C58.763 7.3763 59.4129 7.3638 59.9879 7.3638C60.5629 7.3388 60.9128 7.3263 61.0378 7.3263L61.2628 7.70129L61.0753 12.5385H59.3879L59.2379 12.3885C59.1879 11.9136 59.1129 11.5386 59.0129 11.2636C58.938 10.9886 58.713 10.7886 58.338 10.6636C57.963 10.5386 57.3755 10.4636 56.5756 10.4386C55.8006 10.4136 54.7132 10.4011 53.3132 10.4011H51.1759L51.1384 10.7386C51.1134 11.0886 51.0884 11.4136 51.0634 11.7136C51.0634 12.0136 51.0509 12.3635 51.0259 12.7635C51.0259 13.1635 51.0259 13.651 51.0259 14.2259C51.0259 14.8009 51.0259 15.5384 51.0259 16.4383V17.7133C51.6258 17.6883 52.2008 17.6883 52.7508 17.7133C53.3007 17.7133 53.8132 17.7008 54.2882 17.6758C54.7632 17.6508 55.1632 17.6133 55.4881 17.5633C55.8381 17.4883 56.0881 17.3758 56.2381 17.2258C56.4881 16.9758 56.6131 16.6258 56.6131 16.1758L56.8006 15.9883L58.188 15.9134L58.338 15.9883C58.288 16.5633 58.238 17.0633 58.188 17.4883C58.163 17.9132 58.1505 18.4007 58.1505 18.9507C58.1505 19.5507 58.163 20.1131 58.188 20.6381C58.238 21.1381 58.288 21.688 58.338 22.288L58.188 22.363L56.7631 22.288L56.6131 22.1755C56.6131 21.5506 56.5006 21.0881 56.2756 20.7881C56.0756 20.5131 55.5006 20.3631 54.5507 20.3381C53.6257 20.2881 52.5883 20.2631 51.4383 20.2631H51.0259V23.338C51.0259 24.0629 51.0259 24.6629 51.0259 25.1379C51.0509 25.6128 51.0634 26.0253 51.0634 26.3753C51.0884 26.7003 51.1134 27.0128 51.1384 27.3127C51.1634 27.6127 51.1884 27.9627 51.2134 28.3627C51.2384 28.8377 51.4883 29.0752 51.9633 29.0752H53.6507C55.0757 29.0752 56.1881 29.0502 56.9881 29.0002C57.813 28.9502 58.438 28.8377 58.863 28.6627C59.2879 28.4627 59.5879 28.1877 59.7629 27.8377C59.9629 27.4877 60.1379 27.0128 60.2879 26.4128L60.4379 26.2628H62.2003L61.4878 31.775L61.1878 32.15C61.0628 32.15 60.7504 32.1375 60.2504 32.1125C59.7754 32.1125 59.2379 32.1 58.638 32.075C58.038 32.05 57.438 32.025 56.8381 32C56.2381 32 55.7631 32 55.4131 32H47.8385C47.6635 32 47.3761 32.0125 46.9761 32.0375C46.5761 32.0625 46.1636 32.0875 45.7386 32.1125C45.3137 32.1375 44.9012 32.1625 44.5012 32.1875C44.1012 32.2125 43.8138 32.225 43.6388 32.225L43.5638 32.075L43.6763 30.6501L43.8637 30.5001C44.2637 30.5001 44.6387 30.4876 44.9887 30.4626C45.3387 30.4126 45.6262 30.3001 45.8511 30.1251C46.0511 29.9501 46.2386 29.7251 46.4136 29.4501C46.6136 29.1751 46.7386 28.6877 46.7886 27.9877C46.7886 27.8127 46.7886 27.6127 46.7886 27.3877C46.8136 27.1378 46.8261 26.8378 46.8261 26.4878C46.8511 26.1378 46.8636 25.7128 46.8636 25.2129C46.8636 24.7129 46.8636 24.0879 46.8636 23.338V17.2258C46.8636 16.3508 46.8636 15.6134 46.8636 15.0134C46.8636 14.4134 46.8636 13.901 46.8636 13.476C46.8636 13.051 46.8511 12.6885 46.8261 12.3885C46.8261 12.0886 46.8136 11.7886 46.7886 11.4886C46.7386 10.8136 46.6136 10.3261 46.4136 10.0262C46.2386 9.72618 46.0511 9.50119 45.8511 9.3512C45.6262 9.15121 45.3387 9.03871 44.9887 9.01371C44.6387 8.98872 44.2637 8.97622 43.8637 8.97622L43.6763 8.82622L43.5638 7.4013L43.6388 7.25131C43.8138 7.25131 44.1012 7.26381 44.5012 7.28881C44.9012 7.3138 45.3262 7.3388 45.7761 7.3638C46.2511 7.3888 46.7011 7.4138 47.1261 7.4388C47.5761 7.4638 47.9385 7.4763 48.2135 7.4763H54.3632ZM68.3198 11.4886C68.2698 11.0636 68.1698 10.6511 68.0198 10.2511C67.8948 9.82617 67.6948 9.51369 67.4198 9.3137C67.2198 9.18871 66.9698 9.10121 66.6699 9.05121C66.3699 9.00122 65.9574 8.97622 65.4324 8.97622L65.2449 8.82622L65.1324 7.4013L65.2074 7.25131C65.4324 7.27631 65.7324 7.3013 66.1074 7.3263C66.5074 7.3513 66.9073 7.3763 67.3073 7.4013C67.7323 7.4263 68.1323 7.4513 68.5073 7.4763C68.8822 7.4763 69.1822 7.4763 69.4072 7.4763H71.6196C71.8446 7.4763 72.1321 7.4763 72.4821 7.4763C72.857 7.4513 73.2445 7.4263 73.6445 7.4013C74.0695 7.3763 74.4694 7.3513 74.8444 7.3263C75.2444 7.3013 75.5694 7.27631 75.8194 7.25131L75.8944 7.4013L75.7819 8.82622L75.6319 8.97622C75.0069 8.97622 74.5444 9.01372 74.2445 9.08871C73.9695 9.13871 73.7445 9.2262 73.5695 9.3512C73.0445 9.70118 72.7445 10.4136 72.6695 11.4886C72.6445 11.7386 72.6195 12.0011 72.5945 12.276C72.5945 12.526 72.5945 12.8635 72.5945 13.2885C72.5945 13.6885 72.5945 14.2009 72.5945 14.8259C72.5945 15.4509 72.5945 16.2383 72.5945 17.1883V22.213C72.5945 23.188 72.5945 23.9879 72.5945 24.6129C72.5945 25.2129 72.5945 25.7253 72.5945 26.1503C72.6195 26.5503 72.632 26.9128 72.632 27.2378C72.657 27.5377 72.6945 27.9002 72.7445 28.3252C72.7695 28.8252 73.057 29.0752 73.607 29.0752H77.0943C77.9193 29.0752 78.5692 29.0627 79.0442 29.0377C79.5442 28.9877 79.9317 28.8877 80.2066 28.7377C80.4816 28.5627 80.6941 28.3252 80.8441 28.0252C80.9941 27.7252 81.1316 27.3127 81.2566 26.7878L81.3691 26.6378H83.094L82.419 31.775L82.119 32.15C81.9191 32.125 81.6066 32.1 81.1816 32.075C80.7566 32.075 80.3066 32.0625 79.8317 32.0375C79.3567 32.0375 78.8817 32.025 78.4067 32C77.9568 32 77.6068 32 77.3568 32H69.4072C69.2322 32 68.9447 32 68.5448 32C68.1698 32.025 67.7698 32.05 67.3448 32.075C66.9198 32.1 66.5074 32.125 66.1074 32.15C65.7074 32.175 65.4074 32.2 65.2074 32.225L65.1324 32.075L65.2449 30.6501L65.4324 30.5001C66.3824 30.5001 67.0323 30.3626 67.3823 30.0876C67.5823 29.9126 67.7698 29.6376 67.9448 29.2626C68.1448 28.8877 68.2698 28.4502 68.3198 27.9502C68.3448 27.7002 68.3573 27.3627 68.3573 26.9378C68.3823 26.4878 68.3948 26.0253 68.3948 25.5503C68.4198 25.0754 68.4323 24.6379 68.4323 24.2379C68.4323 23.8129 68.4323 23.5129 68.4323 23.338V17.2258C68.4323 15.8509 68.4198 14.6509 68.3948 13.626C68.3948 12.576 68.3698 11.8636 68.3198 11.4886ZM88.1674 11.4886C88.1174 11.0636 88.0174 10.6511 87.8674 10.2511C87.7424 9.82617 87.5424 9.51369 87.2674 9.3137C87.0674 9.18871 86.8174 9.10121 86.5174 9.05121C86.2175 9.00122 85.805 8.97622 85.28 8.97622L85.0925 8.82622L84.98 7.4013L85.055 7.25131C85.28 7.27631 85.58 7.3013 85.955 7.3263C86.355 7.3513 86.7549 7.3763 87.1549 7.4013C87.5799 7.4263 87.9799 7.4513 88.3549 7.4763C88.7298 7.4763 89.0298 7.4763 89.2548 7.4763H91.4672C91.6922 7.4763 91.9797 7.4763 92.3296 7.4763C92.7046 7.4513 93.0921 7.4263 93.4921 7.4013C93.9171 7.3763 94.317 7.3513 94.692 7.3263C95.092 7.3013 95.417 7.27631 95.667 7.25131L95.742 7.4013L95.6295 8.82622L95.4795 8.97622C94.8545 8.97622 94.392 9.01372 94.092 9.08871C93.8171 9.13871 93.5921 9.2262 93.4171 9.3512C92.8921 9.70118 92.5921 10.4136 92.5171 11.4886C92.4921 11.7386 92.4671 12.0011 92.4421 12.276C92.4421 12.526 92.4421 12.8635 92.4421 13.2885C92.4421 13.6885 92.4421 14.2009 92.4421 14.8259C92.4421 15.4509 92.4421 16.2383 92.4421 17.1883V22.213C92.4421 23.188 92.4421 23.9879 92.4421 24.6129C92.4421 25.2129 92.4421 25.7253 92.4421 26.1503C92.4671 26.5503 92.4796 26.9128 92.4796 27.2378C92.5046 27.5377 92.5421 27.9002 92.5921 28.3252C92.6171 28.8252 92.9046 29.0752 93.4546 29.0752H96.9419C97.7669 29.0752 98.4168 29.0627 98.8918 29.0377C99.3918 28.9877 99.7792 28.8877 100.054 28.7377C100.329 28.5627 100.542 28.3252 100.692 28.0252C100.842 27.7252 100.979 27.3127 101.104 26.7878L101.217 26.6378H102.942L102.267 31.775L101.967 32.15C101.767 32.125 101.454 32.1 101.029 32.075C100.604 32.075 100.154 32.0625 99.6793 32.0375C99.2043 32.0375 98.7293 32.025 98.2543 32C97.8044 32 97.4544 32 97.2044 32H89.2548C89.0798 32 88.7923 32 88.3924 32C88.0174 32.025 87.6174 32.05 87.1924 32.075C86.7674 32.1 86.355 32.125 85.955 32.15C85.555 32.175 85.255 32.2 85.055 32.225L84.98 32.075L85.0925 30.6501L85.28 30.5001C86.23 30.5001 86.8799 30.3626 87.2299 30.0876C87.4299 29.9126 87.6174 29.6376 87.7924 29.2626C87.9924 28.8877 88.1174 28.4502 88.1674 27.9502C88.1924 27.7002 88.2049 27.3627 88.2049 26.9378C88.2299 26.4878 88.2424 26.0253 88.2424 25.5503C88.2674 25.0754 88.2799 24.6379 88.2799 24.2379C88.2799 23.8129 88.2799 23.5129 88.2799 23.338V17.2258C88.2799 15.8509 88.2674 14.6509 88.2424 13.626C88.2424 12.576 88.2174 11.8636 88.1674 11.4886ZM117.164 7.06382C119.089 7.06382 120.802 7.4013 122.302 8.07627C123.802 8.75123 125.064 9.67618 126.089 10.8511C127.114 12.0011 127.889 13.3385 128.414 14.8634C128.964 16.3883 129.239 17.9882 129.239 19.6632C129.239 21.3131 128.976 22.913 128.451 24.4629C127.926 25.9878 127.139 27.3377 126.089 28.5127C125.064 29.6876 123.777 30.6376 122.227 31.3625C120.702 32.0625 118.927 32.4125 116.902 32.4125C114.952 32.4125 113.24 32.075 111.765 31.4C110.29 30.7251 109.052 29.8251 108.052 28.7002C107.077 27.5502 106.34 26.2253 105.84 24.7254C105.34 23.2005 105.09 21.6005 105.09 19.9256C105.09 18.1507 105.365 16.4883 105.915 14.9384C106.465 13.3635 107.252 12.0011 108.277 10.8511C109.302 9.67618 110.565 8.75123 112.065 8.07627C113.565 7.4013 115.265 7.06382 117.164 7.06382ZM117.127 29.3001C118.352 29.3001 119.439 29.0502 120.389 28.5502C121.364 28.0252 122.177 27.3377 122.827 26.4878C123.477 25.6128 123.977 24.6004 124.327 23.4505C124.677 22.2755 124.852 21.0256 124.852 19.7007C124.852 18.3507 124.664 17.1008 124.289 15.9508C123.939 14.7759 123.414 13.7635 122.714 12.9135C122.039 12.0636 121.214 11.4011 120.239 10.9261C119.264 10.4261 118.164 10.1762 116.939 10.1762C115.74 10.1762 114.677 10.4136 113.752 10.8886C112.827 11.3636 112.052 12.0261 111.427 12.876C110.802 13.726 110.327 14.7384 110.002 15.9134C109.677 17.0633 109.515 18.3132 109.515 19.6632C109.515 21.1631 109.702 22.513 110.077 23.7129C110.452 24.8879 110.977 25.8878 111.652 26.7128C112.327 27.5377 113.127 28.1752 114.052 28.6252C114.977 29.0752 116.002 29.3001 117.127 29.3001Z" fill="black"/>
<rect y="40" width="144" height="16" fill="#FFDE59"/>
</svg>
